<?xml version="1.0" encoding="UTF-8" standalone="no"?>
<!-- Created with Inkscape (http://www.inkscape.org/) -->

<svg
   width="210mm"
   height="297mm"
   viewBox="0 0 210 297"
   version="1.1"
   id="svg5"
   xml:space="preserve"
   inkscape:version="1.2 (dc2aedaf03, 2022-05-15)"
   sodipodi:docname="background.svg"
   xmlns:inkscape="http://www.inkscape.org/namespaces/inkscape"
   xmlns:sodipodi="http://sodipodi.sourceforge.net/DTD/sodipodi-0.dtd"
   xmlns:xlink="http://www.w3.org/1999/xlink"
   xmlns="http://www.w3.org/2000/svg"
   xmlns:svg="http://www.w3.org/2000/svg"><sodipodi:namedview
     id="namedview7"
     pagecolor="#505050"
     bordercolor="#ffffff"
     borderopacity="1"
     inkscape:showpageshadow="0"
     inkscape:pageopacity="0"
     inkscape:pagecheckerboard="1"
     inkscape:deskcolor="#505050"
     inkscape:document-units="mm"
     showgrid="false"
     inkscape:zoom="0.08086703"
     inkscape:cx="-1805.4329"
     inkscape:cy="834.70359"
     inkscape:window-width="1788"
     inkscape:window-height="1230"
     inkscape:window-x="1639"
     inkscape:window-y="52"
     inkscape:window-maximized="0"
     inkscape:current-layer="layer2" /><defs
     id="defs2"><linearGradient
       inkscape:collect="always"
       id="linearGradient5512"><stop
         style="stop-color:#e8f0f6;stop-opacity:1;"
         offset="0"
         id="stop5508" /><stop
         style="stop-color:#1d368f;stop-opacity:1;"
         offset="1"
         id="stop5510" /></linearGradient><linearGradient
       inkscape:collect="always"
       id="linearGradient4858"><stop
         style="stop-color:#05090d;stop-opacity:1;"
         offset="0.40000001"
         id="stop4854" /><stop
         style="stop-color:#1d368f;stop-opacity:1;"
         offset="1"
         id="stop4856" /></linearGradient><linearGradient
       inkscape:collect="always"
       xlink:href="#linearGradient4858"
       id="linearGradient4860"
       x1="102.95229"
       y1="-1872.2457"
       x2="102.95229"
       y2="-266.59412"
       gradientUnits="userSpaceOnUse"
       gradientTransform="matrix(1,0,0,0.5,0,-936.12286)" /><linearGradient
       inkscape:collect="always"
       xlink:href="#linearGradient5512"
       id="linearGradient5506"
       gradientUnits="userSpaceOnUse"
       x1="102.95229"
       y1="-1872.2457"
       x2="102.95226"
       y2="204.54968"
       gradientTransform="matrix(1,0,0,0.5,-205.90455,731.57318)" /></defs><g
     inkscape:label="Ebene 1"
     inkscape:groupmode="layer"
     id="layer1"
     style="display:inline" /><g
     inkscape:groupmode="layer"
     id="layer2"
     inkscape:label="Ebene 2"><path
       style="display:inline;fill:#486eaf;fill-opacity:1;stroke:#132965;stroke-width:0.2;stroke-linecap:round;stroke-linejoin:round;stroke-opacity:1"
       d="m -225.65797,120.88218 c 0,0 16.51395,-4.91626 29.52759,-11.56767 13.01363,-6.65142 18.94206,-12.146062 23.27994,-12.435254 4.33788,-0.289192 16.19474,5.060864 18.79747,5.494644 2.60272,0.43379 13.26667,1.51826 13.26667,1.51826 0,0 0.18074,1.19292 2.31353,2.02434 2.1328,0.83143 13.51972,0.43379 14.96568,0.79528 1.44596,0.36149 3.43415,2.27739 5.42235,2.63888 1.98819,0.36148 4.88011,-0.0723 6.10918,0.75912 1.22906,0.83143 12.507543,12.29066 13.447414,12.57985 0.939874,0.28919 21.544793,12.00146 29.678313,8.92879 8.13352,-3.07266 10.73625,-9.10954 10.73625,-9.10954 0,0 1.37366,-5.097 8.60345,-8.7119 7.2298,-3.6149 12.21836,-6.57911 12.21836,-6.57911 0,0 9.52858,-4.51015 11.4157,3.05883 1.88712,7.56897 10.12909,14.58187 10.12909,14.58187 0,0 6.7237098,5.78383 11.8568598,5.27775 5.13315,-0.50609 15.0379702,-10.41091 15.0379702,-10.41091 0,0 10.12172,-15.61636 15.90556,-15.90555 5.78383,-0.28919 12.14836,9.47103 12.14836,9.47103 v 91.15867 H -225.55797"
       id="path3991"
       inkscape:export-filename="..\..\..\..\..\bg3.png"
       inkscape:export-xdpi="96"
       inkscape:export-ydpi="96" /><path
       style="fill:#1f387a;fill-opacity:1;stroke:#132965;stroke-width:0.2;stroke-linecap:round;stroke-linejoin:round;stroke-opacity:1"
       d="m 39.401767,144.78503 c 0,0 6.536833,6.00073 20.41804,3.6149 13.881212,-2.38584 10.167722,-0.87165 16.253892,-2.31557 6.08618,-1.44393 22.787,-0.86554 26.401901,-2.02231 3.6149,-1.15677 9.39874,-4.12098 16.55623,-3.398 7.1575,0.72298 42.718,8.82035 55.73668,7.22979 13.01868,-1.59055 30.65938,-5.27775 36.00943,-2.09664 5.35005,3.18111 23.85832,10.41091 31.5219,7.88048 7.66359,-2.53043 20.09884,-8.16967 29.35297,-8.38656 9.25414,-0.2169 18.47027,4.38465 18.47027,4.38465 0,0 7.4847,4.4357 16.37735,4.00191 8.89265,-0.43379 7.37439,-1.73515 7.37439,-1.73515 l 0.21689,52.50703 -274.589943,-0.10007 z"
       id="path1933"
       inkscape:export-filename="..\..\..\..\..\bg2.png"
       inkscape:export-xdpi="96"
       inkscape:export-ydpi="96" /><path
       style="fill:#132965;fill-opacity:1;stroke:#132965;stroke-width:0.2;stroke-linecap:round;stroke-linejoin:round;stroke-opacity:1"
       d="m 314.29171,130.87321 c 0,0 3.6619,-0.4601 5.04221,0.10224 1.3803,0.56235 4.54989,5.9302 5.31673,6.28805 0.76683,0.35786 0.81795,0.0511 1.07356,0.76684 0.25562,0.71571 1.7126,4.2815 2.63281,4.65214 0.9202,0.37063 1.00966,0.0383 1.48255,0.47288 0.47288,0.43454 0.95854,1.50811 1.00966,0.7924 0.0511,-0.71572 0,-0.62625 0.16615,-1.15026 0.16615,-0.524 0.70293,-1.67426 1.06079,-1.67426 0.35786,0 1.03523,1.38031 1.16303,2.21104 0.12781,0.83074 0.34508,2.14715 0.81796,2.18549 0.47288,0.0383 1.04801,-0.63903 1.49533,-0.95855 0.44732,-0.31951 0.53679,-0.49844 1.12469,-0.61346 0.58791,-0.11503 1.13748,0.0767 1.94265,-0.28118 0.80518,-0.35785 1.13748,-1.09913 2.15992,-1.40586 1.02245,-0.30674 1.31641,-0.34508 1.61036,-0.7285 0.29395,-0.38341 0.75405,-1.00967 1.87875,-0.99688 1.12469,0.0128 2.82451,0.24283 3.04178,0.56234 0.21727,0.31952 1.00966,2.0449 1.46977,2.33885 0.4601,0.29395 0.5879,0.23005 0.79239,0.4601 0.20449,0.23005 0.71572,1.75094 1.29084,2.28773 0.57513,0.53678 3.029,1.58479 3.57857,2.08323 0.54956,0.49845 3.06734,2.8373 3.84696,3.25906 0.77961,0.42176 1.49533,0.72849 1.59757,0.53678 0.10225,-0.19171 0.30674,-1.85319 0.51123,-1.76372 0.20448,0.0895 0.39619,0.48566 0.49844,0.37064 0.10224,-0.11503 0.24283,-0.28118 0.37064,0.0128 0.1278,0.29395 0.25561,1.09913 0.1917,1.49533 -0.0639,0.39619 -0.17892,0.8563 0.74128,1.50811 0.9202,0.65181 2.2366,1.99377 3.029,1.99377 0.7924,0 1.40586,-0.47288 1.91709,-0.42176 0.51122,0.0511 1.16303,0.74127 1.96821,0.9202 0.80518,0.17893 2.45387,0.19171 3.68081,-0.1278 1.22694,-0.31952 1.40586,-0.57513 2.38997,-0.52401 0.98411,0.0511 2.60724,0.65181 3.77028,0.71572 1.16303,0.0639 2.99066,-0.57513 3.8214,-0.0639 0.83073,0.51123 1.52088,2.03212 3.43797,2.46666 1.91709,0.43454 4.46043,0.76683 5.41898,1.46976 0.95854,0.70294 7.57889,5.58512 8.63968,6.00688 1.06079,0.42176 12.34605,4.92053 13.85416,4.79273 1.50811,-0.12781 1.17582,-0.71572 2.28773,-0.35786 1.11191,0.35786 8.74192,3.01622 10.32672,3.24627 1.58479,0.23005 11.77092,0.24283 12.33327,0.24283 0.56235,0 12.5761,0.35786 14.17368,-0.53678 1.59757,-0.89464 5.80238,-2.53056 7.84728,-2.73505 2.0449,-0.20449 9.70047,-2.18548 11.54088,-1.99377 1.8404,0.19171 6.50532,1.35474 7.75782,2.04489 1.2525,0.69015 10.0072,3.3613 11.43863,3.41242 1.43142,0.0511 2.5689,1.07357 4.60101,0.52401 2.03212,-0.54957 5.17614,-2.77339 7.01655,-3.25906 1.8404,-0.48566 10.62067,0.29396 10.62067,0.29396 0,0 1.46977,0.23005 2.05768,0.0256 0.5879,-0.20449 5.63624,-3.16959 6.67147,-3.57857 1.03522,-0.40898 1.94265,-0.16615 2.79895,-0.99689 0.85629,-0.83074 3.13124,-3.45076 3.97476,-3.87252 0.84352,-0.42176 3.029,-1.23971 4.97165,-1.43142 1.94265,-0.19171 2.24939,0.62625 4.2176,-0.29396 1.96821,-0.9202 2.97787,-1.75094 3.78305,-1.9043 0.80518,-0.15337 3.8853,-0.19171 6.31362,-0.90743 2.42831,-0.71571 6.81205,-2.46665 7.79616,-3.31017 0.9841,-0.84352 6.78649,-5.27838 8.25626,-5.75127 1.46977,-0.47288 7.16991,-4.7416 7.74504,-5.27838 0.57513,-0.53679 2.92676,-3.01622 4.7416,-3.74472 1.81485,-0.72849 3.39964,-8.55021 4.23038,-9.20202 0.83074,-0.65182 1.67425,-0.88187 2.32607,-0.54957 0.65181,0.3323 0.86908,0.4601 0.86908,0.4601 l -0.0284,72.98838 H 314.29171"
       id="path1931"
       inkscape:export-filename="..\..\..\..\..\bg1.png"
       inkscape:export-xdpi="96"
       inkscape:export-ydpi="96" /><path
       style="fill:#7b98c2;fill-opacity:1;stroke:#132965;stroke-width:0.2;stroke-linecap:round;stroke-linejoin:round;stroke-opacity:1"
       d="m -490.8177,77.648005 10.39633,4.771665 c 0,0 14.74878,-4.627068 19.23125,-5.494644 4.48247,-0.867577 8.38656,-0.867577 8.38656,-0.867577 0,0 1.78679,-1.878883 4.29179,-3.974899 2.505,-2.096019 3.8853,-3.118466 5.11224,-3.118466 1.22693,0 3.01622,0.817959 6.33917,3.067343 3.32296,2.249384 5.72571,3.731932 7.10601,3.783055 1.3803,0.05112 3.57857,-0.817957 4.24316,-0.613468 0.66459,0.204488 5.21448,1.431427 7.00376,1.431427 1.78929,0 12.01376,-0.817959 12.01376,-0.817959 l 5.21448,0.357857 16.92151,-8.026212 5.47009,0.153366 4.90775,-1.738159 8.58856,6.441418 c 0,0 6.01608,-0.408979 7.35344,-0.102245 1.33736,0.306734 6.65409,3.783054 6.65409,3.783054 l 15.74569,3.731935 c 0,0 12.83172,0.05112 14.97886,-0.664591 2.14714,-0.715714 12.01375,-4.089789 12.26937,-4.140912 0.25561,-0.05112 5.67458,-0.869082 5.67458,-0.869082 l 3.11846,-1.278059 c 0,0 5.98132,2.096019 8.02622,2.965098 2.04489,0.869082 19.11976,5.981319 19.11976,5.981319 l 14.05866,-3.578566 14.26314,-4.652137 18.47104,4.192034 V 204.44956 H -490.6177"
       id="path4600"
       inkscape:export-filename="..\..\..\..\..\bg4.png"
       inkscape:export-xdpi="96"
       inkscape:export-ydpi="96" /><g
       id="g6989"
       transform="translate(-726.44985,-0.10010836)"
       inkscape:export-filename="..\..\..\..\..\sky.png"
       inkscape:export-xdpi="96"
       inkscape:export-ydpi="96"><rect
         style="fill:url(#linearGradient4860);fill-opacity:1;stroke:#1c3c94;stroke-width:0.200002;stroke-linecap:round;stroke-linejoin:round;stroke-opacity:1"
         id="rect4852"
         width="264.95975"
         height="1038.3977"
         x="-29.527582"
         y="-1872.2457" /><rect
         style="fill:url(#linearGradient5506);fill-opacity:1;stroke:#1c3c94;stroke-width:0.200002;stroke-linecap:round;stroke-linejoin:round;stroke-opacity:1"
         id="rect5504"
         width="264.95975"
         height="1038.3977"
         x="-235.43214"
         y="-204.54967"
         transform="scale(-1)" /></g></g></svg>
