<?xml version="1.0" encoding="UTF-8" standalone="no"?>
<!-- Created with Inkscape (http://www.inkscape.org/) -->

<svg
   width="210mm"
   height="297mm"
   viewBox="0 0 210 297"
   version="1.1"
   id="svg5"
   inkscape:version="1.2 (dc2aedaf03, 2022-05-15)"
   sodipodi:docname="design.svg"
   xmlns:inkscape="http://www.inkscape.org/namespaces/inkscape"
   xmlns:sodipodi="http://sodipodi.sourceforge.net/DTD/sodipodi-0.dtd"
   xmlns="http://www.w3.org/2000/svg"
   xmlns:svg="http://www.w3.org/2000/svg">
  <sodipodi:namedview
     id="namedview7"
     pagecolor="#505050"
     bordercolor="#ffffff"
     borderopacity="1"
     inkscape:showpageshadow="0"
     inkscape:pageopacity="0"
     inkscape:pagecheckerboard="1"
     inkscape:deskcolor="#505050"
     inkscape:document-units="mm"
     showgrid="false"
     inkscape:zoom="2.5877449"
     inkscape:cx="505.26618"
     inkscape:cy="895.56739"
     inkscape:window-width="1346"
     inkscape:window-height="1230"
     inkscape:window-x="2011"
     inkscape:window-y="38"
     inkscape:window-maximized="0"
     inkscape:current-layer="layer1" />
  <defs
     id="defs2" />
  <g
     inkscape:label="Ebene 1"
     inkscape:groupmode="layer"
     id="layer1">
    <ellipse
       style="fill:#d5f6ff;stroke:#000000;stroke-width:0.2;fill-opacity:1;stroke-dasharray:none"
       id="ellipse2679"
       cx="33.767963"
       cy="18.82131"
       rx="5.6398296"
       ry="1.3711114"
       transform="rotate(14.231654)"
       inkscape:export-filename="player.png"
       inkscape:export-xdpi="96"
       inkscape:export-ydpi="96" />
    <ellipse
       style="fill:#d5f6ff;stroke:#000000;stroke-width:0.2;fill-opacity:1;stroke-dasharray:none"
       id="path1219"
       cx="9.8154955"
       cy="28.053402"
       rx="5.6234612"
       ry="2.2621651" />
    <path
       style="fill:#d5f6ff;stroke:#000000;stroke-width:0.2;fill-opacity:1;stroke-dasharray:none"
       d="m 29.099024,9.4427459 c -2.585458,9.0037561 -3.102551,11.7051371 -3.102551,11.7051371 0,0 -0.712592,3.641617 2.797427,4.772703 3.510017,1.131083 17.493822,-1.579157 17.448971,-2.43561 -0.04485,-0.856453 0.905543,-1.996415 -4.000864,-4.13121 C 37.3356,17.21897 32.139756,17.119519 30.549984,17.90361"
       id="path741" />
    <ellipse
       style="fill:#d5f6ff;stroke:#000000;stroke-width:0.2;fill-opacity:1;stroke-dasharray:none"
       id="ellipse1223"
       cx="16.85639"
       cy="26.694458"
       rx="10.268741"
       ry="3.6995158"
       transform="rotate(-6.0885251)" />
    <path
       style="fill:#d5f6ff;stroke:#000000;stroke-width:0.2;stroke-dasharray:none"
       d="m 29.386751,16.636277 2.532982,-6.607041 1.908806,9.046503 -3.548107,1.625309"
       id="path743" />
    <ellipse
       style="fill:#ffffff;stroke:#000000;stroke-width:0.11296"
       id="path955"
       cx="40.866783"
       cy="11.863266"
       rx="2.3690169"
       ry="0.99545014"
       transform="rotate(11.745752)" />
    <ellipse
       style="fill:#0000ff;stroke:#000000;stroke-width:0.11296"
       id="path1165"
       cx="42.320412"
       cy="11.698547"
       rx="0.62505007"
       ry="0.57875007"
       transform="rotate(11.745752)" />
    <ellipse
       style="fill:#d5f6ff;stroke:#000000;stroke-width:0.2;fill-opacity:1;stroke-dasharray:none"
       id="ellipse1221"
       cx="11.067994"
       cy="26.69866"
       rx="5.6234612"
       ry="2.2621651" />
    <ellipse
       style="fill:#d5f6ff;stroke:#000000;stroke-width:0.2;fill-opacity:1;stroke-dasharray:none"
       id="ellipse2677"
       cx="36.874023"
       cy="17.03145"
       rx="5.6398296"
       ry="1.3711114"
       transform="rotate(14.231654)" />
    <path
       style="fill:#ff2a2a;fill-opacity:1;stroke:#000000;stroke-width:0.2;stroke-dasharray:none"
       d="m 21.556486,8.3844034 c 0,0 -3.527444,2.6328016 -7.489428,3.8852996 -3.961984,1.252498 -14.03309081,2.428312 -16.2569142,2.556119 -2.2238232,0.127807 -2.1471395,0.05112 -2.1471395,0.05112 0,0 5.08667619,-1.226936 2.8628528,-1.738161 -2.2238232,-0.511221 -2.9139753,-0.332294 -2.9139753,-0.332294 0,0 3.52744369,-0.639029 3.0929037,-1.201375 -0.4345403,-0.562346 -3.0417812,-0.741274 -3.0417812,-0.741274 0,0 6.6459086,-2.7094856 10.1222302,-3.2462706 3.476321,-0.536785 10.4289635,-1.50811 12.3204915,-0.971325 1.891528,0.536785 3.45076,1.738161 3.45076,1.738161 z"
       id="path3026"
       inkscape:export-filename="cape.png"
       inkscape:export-xdpi="96"
       inkscape:export-ydpi="96" />
    <path
       id="rect295"
       style="fill:#89a02c;stroke:#000000;stroke-width:0.2;stroke-linecap:round;stroke-linejoin:round;stroke-dasharray:none"
       d="m 46.390212,63.961805 a 5.5841758,6.3539624 0 0 0 -5.584066,6.353838 5.5841758,6.3539624 0 0 0 0.0031,0.09983 h -0.01564 v 20.108823 h -1.675958 v -9.602285 h -0.0082 a 2.9198065,3.3223059 0 0 0 0.0016,-0.05214 2.9198065,3.3223059 0 0 0 -2.919914,-3.321982 2.9198065,3.3223059 0 0 0 -2.919522,3.321982 2.9198065,3.3223059 0 0 0 0.0016,0.05214 h -0.0082 v 12.931843 4.46e-4 a 2.9198066,3.3223058 0 0 0 2.919522,3.322428 2.9198066,3.3223058 0 0 0 0.04583,-0.0022 v 0.0094 h 4.563317 V 121.3911 H 51.987203 V 90.325529 h 4.563369 v -0.0094 a 2.9198066,3.3223058 0 0 0 0.04583,0.0018 2.9198066,3.3223058 0 0 0 2.919522,-3.322428 v -12.93232 h -0.0082 a 2.9198065,3.3223059 0 0 0 0.0016,-0.05214 2.9198065,3.3223059 0 0 0 -2.919914,-3.321983 2.9198065,3.3223059 0 0 0 -2.919522,3.321983 2.9198065,3.3223059 0 0 0 0.0016,0.05214 h -0.0082 v 9.602731 h -1.676085 v -13.25044 h -0.01567 a 5.5841758,6.3539624 0 0 0 0.0031,-0.09983 5.5841758,6.3539624 0 0 0 -5.584458,-6.353838 z" />
    <path
       id="path1093"
       style="fill:#aaeeff;stroke:#0044aa;stroke-width:0.2;stroke-linecap:round;stroke-linejoin:round;stroke-dasharray:none"
       d="M 112.05104 5.9732788 A 14.82108 12.579845 0 0 0 99.020312 12.562541 A 28.774586 18.797468 0 0 0 73.454948 31.232719 A 28.774586 18.797468 0 0 0 78.994145 42.308012 A 14.82108 12.579845 0 0 0 78.866504 43.912565 A 14.82108 12.579845 0 0 0 93.687305 56.492159 A 14.82108 12.579845 0 0 0 106.78935 49.783008 A 28.774586 18.797468 0 0 0 118.24963 46.835901 A 14.82108 12.579845 0 0 0 131.10363 53.166781 A 14.82108 12.579845 0 0 0 141.13247 49.838818 A 28.774586 18.797468 0 0 0 155.84682 52.488269 A 28.774586 18.797468 0 0 0 171.41641 49.486902 A 14.82108 12.579845 0 0 0 181.89122 53.166781 A 14.82108 12.579845 0 0 0 196.71202 40.58667 A 14.82108 12.579845 0 0 0 183.30199 28.064437 A 28.774586 18.797468 0 0 0 155.84682 14.893148 A 28.774586 18.797468 0 0 0 143.12511 16.840833 A 14.82108 12.579845 0 0 0 131.86069 12.435417 A 14.82108 12.579845 0 0 0 125.66778 13.587801 A 14.82108 12.579845 0 0 0 112.05104 5.9732788 z M 110.50747 72.731995 A 7.2659445 6.9347796 0 0 0 103.24124 79.666455 A 7.2659445 6.9347796 0 0 0 103.36062 80.89377 A 8.4863138 8.5885582 0 0 0 102.7498 81.036397 A 8.1769028 8.0773354 0 0 0 96.823031 78.523889 A 8.1769028 8.0773354 0 0 0 89.067948 84.055851 A 8.4863138 8.5885582 0 0 0 88.646269 84.044999 A 8.4863138 8.5885582 0 0 0 80.159965 92.633622 A 8.4863138 8.5885582 0 0 0 87.651497 101.15713 A 20.89411 8.8203506 0 0 0 108.44713 109.17008 A 20.89411 8.8203506 0 0 0 124.36192 106.05916 A 11.215087 7.2406859 0 0 0 130.77806 107.36244 A 11.215087 7.2406859 0 0 0 140.77487 103.39937 A 11.495375 8.3642635 0 0 0 147.05407 104.7595 A 11.495375 8.3642635 0 0 0 158.5495 96.395667 A 11.495375 8.3642635 0 0 0 150.7262 88.470052 A 5.9465084 5.8199854 0 0 0 150.77736 87.733663 A 5.9465084 5.8199854 0 0 0 150.66316 86.598848 A 9.4348831 6.139502 0 0 0 150.77736 86.601432 A 9.4348831 6.139502 0 0 0 160.21244 80.461755 A 9.4348831 6.139502 0 0 0 150.77736 74.322078 A 9.4348831 6.139502 0 0 0 141.34228 80.461755 A 9.4348831 6.139502 0 0 0 141.96136 82.6394 A 5.9465084 5.8199854 0 0 0 138.88455 87.733663 A 5.9465084 5.8199854 0 0 0 139.03958 89.051929 A 3.1811101 3.9763875 0 0 0 137.00456 88.131055 A 3.1811101 3.9763875 0 0 0 133.82336 92.107556 A 3.1811101 3.9763875 0 0 0 133.9417 93.175708 A 11.215087 7.2406859 0 0 0 130.77806 92.881152 A 11.215087 7.2406859 0 0 0 130.19774 92.894071 A 8.3660841 7.8081789 0 0 0 126.40469 87.399316 A 8.2781153 8.1773348 0 0 0 126.44913 86.601432 A 8.2781153 8.1773348 0 0 0 118.17108 78.424154 A 8.2781153 8.1773348 0 0 0 117.65948 78.442757 A 7.2659445 6.9347796 0 0 0 110.50747 72.731995 z M 137.52184 136.70122 A 42.224564 4.5498915 0 0 0 95.297026 141.25133 A 42.224564 4.5498915 0 0 0 95.489262 141.6606 A 30.97385 5.418972 0 0 0 71.775981 146.92592 A 30.97385 5.418972 0 0 0 99.111263 152.30492 A 33.381645 9.8154917 0 0 0 132.25498 160.98191 A 33.381645 9.8154917 0 0 0 161.82837 155.70884 A 40.27948 5.7257056 0 0 0 169.72039 155.82098 A 40.27948 5.7257056 0 0 0 210.0001 150.09523 A 40.27948 5.7257056 0 0 0 169.72039 144.36948 A 40.27948 5.7257056 0 0 0 168.20524 144.3762 A 42.224564 4.5498915 0 0 0 179.74613 141.25133 A 42.224564 4.5498915 0 0 0 137.52184 136.70122 z " />
    <path
       style="fill:#aaeeff;stroke:#0044aa;stroke-width:0.2;stroke-linecap:round;stroke-linejoin:round;stroke-dasharray:none"
       d="m 106.78935,49.783007 c 0,0 -14.155609,-0.194305 -15.996014,-7.044703 -1.840405,-6.850398 9.508764,-12.882837 15.029974,-10.837942"
       id="path4112" />
    <path
       style="fill:#aaeeff;stroke:#0044aa;stroke-width:0.2;stroke-linecap:round;stroke-linejoin:round;stroke-dasharray:none"
       d="m 118.24963,46.835901 c -1.79286,-10.84575 5.05754,-14.219828 5.05754,-14.219828"
       id="path4114" />
    <path
       style="fill:#aaeeff;stroke:#0044aa;stroke-width:0.2;stroke-linecap:round;stroke-linejoin:round;stroke-dasharray:none"
       d="M 99.020311,12.562541 C 94.371902,22.902824 109.9131,24.640984 109.9131,24.640984"
       id="path4116" />
    <path
       style="fill:#aaeeff;stroke:#0044aa;stroke-width:0.2;stroke-linecap:round;stroke-linejoin:round;stroke-dasharray:none"
       d="m 171.41641,49.486901 c 12.21516,-7.464311 6.69394,-8.384513 -3.32604,-10.73614 C 158.07038,36.399131 136.19,39.725986 136.19,39.725986"
       id="path4118" />
    <path
       style="fill:#89a02c;stroke:#89a02c;stroke-width:0.2;stroke-linecap:round;stroke-linejoin:round;stroke-dasharray:none;fill-opacity:1;stroke-opacity:1"
       d="m 18.291382,121.4911 c 0,0 0.216895,-3.86233 -1.373661,-6.75425 -1.590555,-2.89191 -4.771665,-4.77166 -4.988558,-7.73588 -0.216894,-2.96421 5.566942,7.1575 5.060856,4.26558 -0.506085,-2.89192 -0.867575,-8.24197 0,-10.91699 0.867576,-2.675023 2.168939,-4.916261 2.168939,-4.916261 0,0 -0.939873,4.771661 -0.216894,9.181841 0.72298,4.41018 2.458131,8.45886 2.458131,8.45886 0,0 0.578383,-3.10881 0.506085,-6.57911 -0.0723,-3.47031 -0.867575,-6.28993 -0.867575,-6.28993 0,0 2.675024,2.74733 3.325706,5.85614 0.650681,3.10881 0.361489,9.54333 0.361489,9.54333 0,0 1.373662,-1.37366 2.241237,-4.26558 0.867574,-2.89192 1.156767,-4.91626 1.156767,-4.91626 0,0 1.229066,3.6149 0.722979,6.36222 -0.506085,2.74732 -3.614897,8.70629 -3.614897,8.70629 z"
       id="path4120" />
    <path
       style="fill:#89a02c;stroke:#89a02c;stroke-width:0.2;stroke-linecap:round;stroke-linejoin:round;stroke-dasharray:none;fill-opacity:1;stroke-opacity:1"
       d="m 59.615924,121.4911 c 0,0 0.09501,-1.35352 -0.390655,-3.09168 -0.485661,-1.73816 -1.150252,-3.2974 -1.048006,-4.31984 0.102243,-1.02245 0.332295,-1.73816 0.332295,-1.73816 0,0 -0.127807,0.5879 0.178927,1.76372 0.306734,1.17581 1.303621,2.81173 1.431428,3.52744 0.127804,0.71572 0.281172,1.35475 0.281172,1.35475 0,0 0.434539,-1.68704 0.127805,-2.68393 -0.306734,-0.99688 -0.912966,-1.30362 -0.912966,-2.53056 0,-1.22693 1.373068,-2.35163 1.500875,-2.35163 0.127805,0 0.894641,-0.99688 0.894641,-0.99688 0,0 -0.639029,1.15025 -0.664591,1.55923 -0.02556,0.40898 -1.53367,2.6328 0.383418,3.22071 1.917089,0.58791 1.431425,4.0131 1.431425,4.0131 0,0 1.04801,-2.24938 0.715714,-4.19203 -0.332295,-1.94265 0.05112,-4.3454 0.05112,-4.3454 0,0 -0.306734,0.66459 0.4601,2.53056 0.766836,1.86596 0.434541,6.23693 0.408979,6.33917 -0.02556,0.10225 1.329182,-0.97132 1.329182,-2.505 0,-1.53367 -0.383418,-1.53367 -0.562345,-1.53367 -0.17893,0 0.587907,-0.84352 0.920202,-0.1278 0.332296,0.71571 1.763723,1.96821 0.792398,3.37408 -0.971325,1.40586 -0.894643,2.73382 -0.894643,2.73382 z"
       id="path4850" />
    <path
       style="fill:#89a02c;stroke:#89a02c;stroke-width:0.2;stroke-linecap:round;stroke-linejoin:round;stroke-dasharray:none;fill-opacity:1;stroke-opacity:1"
       d="m 71.285784,121.5911 c 0,0 0.32534,-0.92581 -0.216894,-2.62481 -0.542235,-1.69901 -1.229067,-2.31354 -1.084469,-4.41018 0.144594,-2.09664 0.614532,-4.23168 0.614532,-4.23168 0,0 -0.108448,1.48436 0.144597,2.74957 0.253042,1.26522 1.301361,3.25341 1.301361,3.25341 0,0 0.614534,-1.22907 0.469937,-2.20509 -0.144595,-0.97602 -0.838867,-2.45813 -0.838867,-4.04868 0,-1.59056 1.344954,-3.65105 1.344954,-3.65105 0,0 -0.469937,2.85127 0.144595,3.90184 0.614532,1.05057 1.771301,3.3641 1.771301,4.95466 0,1.59055 -0.108448,3.75949 -0.108448,3.75949 0,0 1.807448,-3.10881 1.337511,-4.95241 -0.469937,-1.8436 -1.626703,-2.71117 -1.229063,-4.69936 0.397637,-1.9882 1.229063,-3.32571 1.229063,-3.32571 0,0 -0.289189,1.87975 0.0723,2.89192 0.36149,1.01217 2.349683,2.38583 2.530428,4.51862 0.180744,2.13279 0.0723,4.19328 0.0723,4.19328 0,0 1.915896,-3.18111 1.445959,-4.15713 -0.469935,-0.97602 0.03615,-2.13279 0.03615,-2.13279 0,0 0.144594,1.51826 0.650681,2.06049 0.506085,0.54224 0.939874,1.87975 0.831427,3.28956 -0.108447,1.40981 -1.012171,4.86605 -1.012171,4.86605 z"
       id="path4852" />
    <path
       style="fill:#d4aa00;fill-opacity:1;stroke:#89a02c;stroke-width:0.2;stroke-linecap:round;stroke-linejoin:round;stroke-dasharray:none;stroke-opacity:1"
       d="m 19.614544,121.4911 c 0,0 0.153365,-1.45577 -0.511226,-4.93209 -0.664591,-3.47632 -0.715711,-4.14091 -0.408977,-5.41897 0.306734,-1.27806 1.26465,-4.8055 1.26465,-5.7257 0,-0.92021 -0.600059,-3.78306 -0.600059,-3.78306 0,0 1.738159,3.68081 1.840405,5.67458 0.102245,1.99378 -0.86908,4.34541 -0.562346,5.72571 0.306735,1.3803 0.817957,3.22071 0.817957,3.22071 0,0 -0.306734,-2.45388 -0.255611,-3.4252 0.05112,-0.97133 1.329182,-4.70326 1.175814,-5.77683 -0.153366,-1.07357 -0.204489,-2.81173 -0.204489,-2.81173 0,0 0.925928,1.94006 0.998225,2.78053 0.0723,0.84046 0.244007,3.34378 -0.207856,4.53669 -0.451861,1.19292 0.506087,4.48248 0.506087,4.48248 0,0 0.524158,-2.15087 0.433787,-3.65105 -0.09037,-1.50018 -0.39764,-3.5426 -0.39764,-3.5426 0,0 0.867577,1.46404 1.048322,3.19919 0.180744,1.73515 0.277439,6.63805 -0.182664,8.0427 -0.460099,1.40464 -0.460099,1.40464 -0.460099,1.40464 z"
       id="path4854" />
    <path
       style="fill:#d4aa00;fill-opacity:1;stroke:#89a02c;stroke-width:0.2;stroke-linecap:round;stroke-linejoin:round;stroke-dasharray:none;stroke-opacity:1"
       d="m 73.892236,121.5911 c 0,0 0.153365,-1.45577 -0.511226,-4.93209 -0.664591,-3.47632 -0.715711,-4.14091 -0.408977,-5.41897 0.306734,-1.27806 1.26465,-4.8055 1.26465,-5.7257 0,-0.92021 -0.600059,-3.78306 -0.600059,-3.78306 0,0 1.738159,3.68081 1.840405,5.67458 0.102245,1.99378 -0.86908,4.34541 -0.562346,5.72571 0.306735,1.3803 0.817957,3.22071 0.817957,3.22071 0,0 -0.306734,-2.45388 -0.255611,-3.4252 0.05112,-0.97133 1.329182,-4.70326 1.175814,-5.77683 -0.153366,-1.07357 -0.204489,-2.81173 -0.204489,-2.81173 0,0 0.925928,1.94006 0.998225,2.78053 0.0723,0.84046 0.244007,3.34378 -0.207856,4.53669 -0.451861,1.19292 0.506087,4.48248 0.506087,4.48248 0,0 0.524158,-2.15087 0.433787,-3.65105 -0.09037,-1.50018 -0.39764,-3.5426 -0.39764,-3.5426 0,0 0.867577,1.46404 1.048322,3.19919 0.180744,1.73515 0.277439,6.63805 -0.182664,8.0427 -0.460099,1.40464 -0.460099,1.40464 -0.460099,1.40464 z"
       id="path5546" />
    <path
       style="fill:#000000;fill-opacity:1;stroke:#000000;stroke-width:0.2;stroke-linecap:round;stroke-linejoin:round;stroke-dasharray:none;stroke-opacity:1"
       d="m 15.950181,152.24243 c 3.680811,-8.28183 7.303173,-8.89529 8.077335,-8.89529 0.774161,0 2.795024,0.86921 3.373408,2.26094 0.578385,1.39174 0.704906,2.18701 0.704906,2.18701 l -0.632608,0.52417 c 0,0 -0.379564,-1.12062 -1.626703,-1.78938 -1.24714,-0.66876 -9.896338,5.71255 -9.896338,5.71255 z"
       id="path5602" />
    <path
       style="fill:#000000;fill-opacity:1;stroke:#000000;stroke-width:0.2;stroke-linecap:round;stroke-linejoin:round;stroke-dasharray:none;stroke-opacity:1"
       d="m 40.143454,152.24243 c -3.680811,-8.28183 -7.303173,-8.89529 -8.077335,-8.89529 -0.774161,0 -2.795024,0.86921 -3.373408,2.26094 -0.578385,1.39174 -0.704906,2.18701 -0.704906,2.18701 l 0.632608,0.52417 c 0,0 0.379564,-1.12062 1.626703,-1.78938 1.24714,-0.66876 9.896338,5.71255 9.896338,5.71255 z"
       id="path5712" />
    <circle
       style="fill:#000000;fill-opacity:1;stroke:#000000;stroke-width:0.2;stroke-linecap:round;stroke-linejoin:round;stroke-dasharray:none;stroke-opacity:1"
       id="path5766"
       cx="28.20583"
       cy="148.10791"
       r="2.1587622" />
    <path
       style="fill:#ff6600;fill-opacity:1;stroke:#000000;stroke-width:0.2;stroke-linecap:round;stroke-linejoin:round;stroke-dasharray:none;stroke-opacity:1"
       d="m 26.788123,148.70221 c 0,0 0.450292,-0.69577 1.515986,-0.64504 1.065694,0.0507 1.449112,0.59391 1.449112,0.59391 0,0 -0.613468,-0.0256 -0.920202,0.29396 -0.306734,0.31951 -0.62719,0.8563 -0.62719,0.8563 0,0 0.01373,-0.62625 -0.484722,-0.89465 -0.498443,-0.26839 -0.932984,-0.20448 -0.932984,-0.20448 z"
       id="path5822" />
    <rect
       style="fill:#ff6600;fill-opacity:1;stroke:#000000;stroke-width:0.2;stroke-linecap:round;stroke-linejoin:round;stroke-dasharray:none;stroke-opacity:1"
       id="rect5876"
       width="77.937195"
       height="6.0730286"
       x="23.809958"
       y="214.72493" />
    <rect
       style="fill:#ff6600;fill-opacity:1;stroke:#000000;stroke-width:0.2;stroke-linecap:round;stroke-linejoin:round;stroke-dasharray:none;stroke-opacity:1"
       id="rect5880"
       width="85.38678"
       height="24.528666"
       x="16.460375"
       y="218.68163"
       ry="2.4555206" />
    <rect
       style="fill:#ff6600;fill-opacity:1;stroke:#000000;stroke-width:0.2;stroke-linecap:round;stroke-linejoin:round;stroke-dasharray:none;stroke-opacity:1"
       id="rect5882"
       width="11.293015"
       height="17.485823"
       x="21.626488"
       y="238.30434"
       ry="5.6465073" />
    <rect
       style="fill:#ff6600;fill-opacity:1;stroke:#000000;stroke-width:0.2;stroke-linecap:round;stroke-linejoin:round;stroke-dasharray:none;stroke-opacity:1"
       id="rect5884"
       width="56.781593"
       height="19.37587"
       x="45.065556"
       y="230.48586" />
    <circle
       style="fill:#ff6600;fill-opacity:1;stroke:#000000;stroke-width:0.2;stroke-linecap:round;stroke-linejoin:round;stroke-dasharray:none;stroke-opacity:1"
       id="path5938"
       cx="41.749477"
       cy="260.20035"
       r="15.399465" />
    <circle
       style="fill:#ff6600;fill-opacity:1;stroke:#000000;stroke-width:0.2;stroke-linecap:round;stroke-linejoin:round;stroke-dasharray:none;stroke-opacity:1"
       id="circle5940"
       cx="147.0153"
       cy="260.20035"
       r="15.399465" />
    <rect
       style="fill:#ff6600;fill-opacity:1;stroke:#000000;stroke-width:0.2;stroke-linecap:round;stroke-linejoin:round;stroke-dasharray:none;stroke-opacity:1"
       id="rect5942"
       width="38.940895"
       height="57.649166"
       x="101.84715"
       y="192.31256"
       ry="0" />
    <rect
       style="fill:#ff6600;fill-opacity:1;stroke:#000000;stroke-width:0.2;stroke-linecap:round;stroke-linejoin:round;stroke-dasharray:none;stroke-opacity:1"
       id="rect5944"
       width="49.307205"
       height="30.998924"
       x="132.2569"
       y="219.06279" />
  </g>
</svg>
